<?xml version="1.0" encoding="UTF-8"?>
<svg viewBox="0 0 401.47 413.7" xmlns="http://www.w3.org/2000/svg">
 <g fill="#f00">
  <path d="m311.34 298.87c0-2.1439 1.3844-11.617 0-12.909-0.75656-0.70651-13.57-0.70453-14.342 0-1.2734 1.1612-0.40088 13.354 1.0621 13.354 4.2122-0.001007 9.8522 0.21564 13.279-0.44498"/>
  <path d="m200.19 349.16c0.15033-4.3024 0.30066-8.6048 0.45003-12.908-10.951 0-14.342-3.1217-14.342 8.3638 0 7.7822 8.8745 4.5444 13.892 4.5444"/>
 </g>
 <path d="m264.73 253.02l-9.4091-9.3474c-10.036 10.422-10.897 9.2099-0.45099 19.585 3.2867-3.4125 6.5734-6.825 9.86-10.237" fill="#0f0"/>
 <path d="m135.21 226.32c-2.988-3.1158-5.976-6.2326-8.9639-9.3484-10.388 10.319-11.466 9.0869-0.89217 19.586 3.2857-3.4115 6.5704-6.8249 9.8561-10.237" fill="#007fff"/>
 <path d="m153.63 75.733c10.4-0.29274 10.494-16.6 0-16.467-10.535 0.13369-9.9288 15.448 0 16.467" fill="#faf"/>
 <path d="m334.64 108.82c0.1503-4.3024 0.30066-8.6048 0.45096-12.907-10.951 0-14.343-3.1227-14.343 8.3638 9.77e-4 7.7812 8.8784 4.5435 13.892 4.5435" fill="#0f0"/>
 <path d="m233.41 82.37c-10.174-10.105-9.0416-8.8273-19.27 0.89094 3.1373 3.1158 6.2756 6.2316 9.414 9.3474 3.2847-3.4134 6.5704-6.8259 9.8561-10.238" fill="#f00"/>
 <g fill="#faa">
  <path d="m308.65 293.08c0-2.1878 1.4188-12.057 0-13.353-0.77817-0.71039-13.565-0.71039-14.343 0-0.59546 0.5445-0.59546 12.809 0 13.353 1.744 1.5916 11.744 0 14.343 0"/>
  <path d="m197.5 342.93c0.14838-4.3024 0.29771-8.6049 0.44707-12.908-10.95 0-14.338-3.1207-14.338 8.3638-9.77e-4 7.7812 8.8578 4.5445 13.89 4.5445"/>
 </g>
 <path d="m265.62 245.9c-10.174-10.104-9.0415-8.8264-19.27 0.89093 3.1364 3.1158 6.2727 6.2326 9.409 9.3484 3.0695-3.0495 8.0914-7.8369 9.861-10.239" fill="#afa"/>
 <path d="m136.55 218.8c-10.452-9.324-9.243-8.5571-19.274 0.84053 3.1383 2.9386 6.2766 5.8791 9.4149 8.8177 3.2857-3.2194 6.5734-6.4388 9.859-9.6582" fill="#aad4ff"/>
 <g fill="#faa">
  <path d="m154.03 187.6c2.7954-20.173 0.14935-35.751 18.824-48.738 6.2678-4.359 13.13-8.2516 20.838-9.3455 12.22-1.735 10.978-0.73578 10.978-14.467-41.886 3.1929-60.418 35.766-50.64 72.55"/>
  <path d="m168.82 213.41c6.8318-16.818 59.39-16.042 58.711 4.4517 14.808-7.2026-3.5461-21.832-12.714-23.935-20.584-4.724-37.473 0.004883-45.997 19.483"/>
 </g>
 <path d="m227.53 225.43c-14.626 26.196-69.167 10.164-64.086-21.365 8.8981 27.205 54.306 29.805 69.91 8.0116-1.6939 4.0136-4.5178 10.872-5.8246 13.353" fill="#f00"/>
 <path d="m162.55 194.72c-0.31244-18.546 49.245-35.222 56.467-16.467 11.537-11.941-11.586-18.357-20.334-17.688-21.846 1.6706-34.114 13.677-36.133 34.155" fill="#faa"/>
 <g fill="#f00">
  <path d="m221.7 185.81c-1.1074 12.779-18.27 18.972-28.402 22.568-17.169 6.0931-34.598-3.1461-39.273-20.343 17.343 18.348 64.575 11.383 68.121-16.913 0 4.6869 0.28592 10.793-0.44608 14.688"/>
  <path d="m268.76 301.09c-10.523-23.634-31.982-22.105-53.332-28.487-24.258-7.2504-40.286-24.165-48.4-48.068-2.1872 26.81 18.145 52.002 42.524 60.072 22.977 7.6046 56.558 7.7022 59.208 39.627-0.001007-7.7139-0.001007-15.429-0.001007-23.144"/>
 </g>
 <path d="m151.39 68.612c10.738 0.54744 10.809-15.96 0.44707-16.021-11.55-0.068306-8.7379 17.659-0.44707 16.021" fill="#f0f"/>
 <path d="m331.95 102.58c0.14838-4.3024 0.29773-8.6048 0.44611-12.907-10.95 0-14.338-3.1207-14.338 8.3638 0 7.7793 8.8578 4.5434 13.892 4.5434" fill="#afa"/>
 <path d="m56.997 206.54c-10.452-9.8832-9.244-9.0713-19.274 0.89093 9.747 9.6782 10.39 10.448 19.274-0.89093" fill="#ff0"/>
 <path d="m193.54 28.052c-10.449-9.8851-9.24-9.0693-19.27 0.89093 9.7451 9.6783 10.385 10.445 19.27-0.89093" fill="#0f0"/>
 <g transform="rotate(-36.62 149.97 290.43)">
  <path d="m108.78 284.2c6.3424-17.314 59.546-15.183 58.707 4.4517 14.431-7.1265-3.1354-20.719-11.65-23.592-20.776-7.0093-39.223 1.1788-47.057 19.14" fill="#ffb3ff"/>
  <path d="m93.989 258.38c2.5065-18.301-0.75558-36.51 17.41-47.986 6.5262-4.1229 14.111-9.8754 22.251-9.8754 12.341 0 10.979-2.746 10.979-14.687-40.697 3.4662-62.155 35.005-50.64 72.549" fill="#faf"/>
  <path d="m167.48 296.66c-17.09 24.553-68.494 10.676-64.087-21.364 8.8156 26.72 53.781 29.32 69.464 8.0115-1.7922 4.4507-3.5844 8.9025-5.3776 13.352" fill="#f0f"/>
  <path d="m102.5 265.5c0.54139-17.981 49.177-35.42 56.471-16.466 11.406-11.514-10.957-17.964-19.27-17.803-19.689 0.38156-38.147 13.506-37.201 34.269" fill="#ffb3ff"/>
  <g fill="#f0f">
   <path d="m161.66 256.6c-4.3331 31.261-59.155 31.003-67.67 2.2259 18.962 20.081 60.283 10.296 68.121-16.024-0.015717 0.28299-0.3429 10.26-0.451 13.798"/>
   <path d="m208.27 372.32c-3.9735-22.804-33.711-23.611-50.866-28.262-25.626-6.9469-41.354-23.804-50.419-48.292-1.5023 27.859 19.567 54.05 45.938 61.199 24.929 6.7576 49.297 7.6798 55.794 38.054 0-7.1499 0.99829-16.418-0.44608-22.7"/>
  </g>
 </g>
 <g transform="rotate(235.98 326.63 269.43)">
  <g fill="#ffa">
   <path d="m377.45 290.35c2.7325 26.227-7.9018 53.22-38.54 53.41 0.44806 4.0048 0.89514 8.0106 1.3432 12.015 32.493-7.2055 51.971-32.449 37.197-65.425"/>
   <path d="m363.11 269.43c-2.6618 16.148-47.7 17.512-49.744 0.88992-11.52 6.8494 4.507 17.307 11.65 19.138 16.037 4.1102 35.28-2.1897 38.094-20.028"/>
  </g>
  <path d="m312.47 263.2c16.192-20.183 55.057-14.478 56.466 13.798-11.248-18.262-49.159-24.078-59.604-1.7799 1.2017-3.8828 2.8357-8.4517 3.1383-12.018" fill="#ff0"/>
  <path d="m369.83 285.01c3.3643 16.37-37.562 32.183-46.607 18.249-6.8003 9.4626 7.8841 14.794 15.686 14.021 17.304-1.7184 34.274-13.224 30.921-32.27" fill="#ffa"/>
  <g fill="#ff0">
   <path d="m320.09 297.03c5.0583-24.824 49.171-33.228 57.809-6.6776-16.745-14.057-54.562-5.3007-56.466 19.137-0.2869-3.9999-0.53253-9.2216-1.3432-12.459"/>
   <path d="m272.13 202.22c9.3855 16.586 23.577 17.159 40.334 19.585 24.618 3.5647 41.336 15.274 51.537 38.276-1.1191-24.795-19.946-43.364-43.247-48.514-20.146-4.4527-44.456-2.5118-49.969-28.484 0.56204 6.015 2.029 13.922 1.3442 19.138"/>
  </g>
 </g>
 <g transform="rotate(216.78 286.03 138.05)">
  <g fill="#aad4ff">
   <path d="m336.85 158.97c0.21716 15.282 2.9388 28.684-9.1457 40.683-7.89 7.8359-18.304 12.545-29.395 12.727 0.29971 4.0058 0.59839 8.0116 0.89807 12.018 32.288-7.308 52.651-31.977 37.643-65.428"/>
   <path d="m322.51 138.05c-2.6765 16.293-47.691 17.559-49.744 0.89093-11.811 6.7693 3.7141 17.164 11.204 19.138 15.939 4.199 35.744-2.1898 38.54-20.029"/>
  </g>
  <path d="m271.87 131.82c14.356-19.637 58.804-14.857 56.02 14.244-8.8814-23.391-47.716-20.313-59.604-2.2249 1.2341-3.9872 2.5429-8.0086 3.5844-12.019" fill="#007fff"/>
  <path d="m328.78 153.63c4.505 16.492-37.269 32.123-46.159 18.249-8.3774 10.36 9.8758 14.512 17.475 13.798 14.781-1.3867 35.064-15.021 28.684-32.047" fill="#aad4ff"/>
  <g fill="#007fff">
   <path d="m279.49 165.65c5.7264-24.042 49.282-34.083 57.364-6.6756-16.428-17.105-52.998-3.0651-56.467 19.137-0.14444-3.9872-0.20734-9.246-0.8971-12.461"/>
   <path d="m231.53 70.844c8.0452 16.68 24.039 17.286 39.888 19.583 24.639 3.5715 41.605 15.232 51.984 38.279-1.184-26.132-21.489-43.946-45.712-48.959-20.032-4.1463-41.628-3.0543-47.504-28.042 0.44803 6.38 0.8951 12.76 1.3432 19.14"/>
  </g>
 </g>
 <g fill="#afa">
  <path transform="rotate(186.83 69.41 84.047)" d="m86.16 51.332c2.7541 26.312-7.9234 53.218-38.545 53.41 0.44805 4.0058 0.8961 8.0115 1.3441 12.018 32.43-7.2114 52.061-32.292 37.201-65.428"/>
  <path transform="rotate(186.83 88.699 129.68)" d="m115.68 119.07c-2.7021 16.335-47.677 17.548-49.748 0.89093-11.856 6.9254 4.283 17.25 11.654 19.138 15.959 4.0877 35.3-2.2512 38.094-20.029"/>
 </g>
 <path transform="rotate(186.83 84.043 144.85)" d="m57.562 143.61c15.29-19.065 58.167-15.442 56.02 14.243-8.343-21.906-49.144-21.955-59.158-2.2259 1.2027-3.8818 2.8367-8.4516 3.1383-12.017" fill="#0f0"/>
 <path transform="rotate(186.83 81.615 107.66)" d="m105.67 91.593c3.7337 16.63-37.336 31.954-46.61 18.249-7.6837 10.575 10.084 14.493 17.48 13.798 16.94-1.5916 32.178-14.225 29.13-32.047" fill="#afa"/>
 <g fill="#0f0">
  <path transform="rotate(186.83 77.34 116.37)" d="m48.432 121.49c6.1813-25.924 47.108-31.616 57.814-6.6766-16.554-13.895-55.166-5.247-56.466 19.138-0.28789-3.9999-0.53353-9.2323-1.3481-12.461"/>
  <path transform="rotate(186.83 100.35 189.96)" d="m55.084 170.59c9.3717 16.588 23.586 17.158 40.334 19.583 25.145 3.6408 40.49 15.497 51.538 38.278-1.1486-24.74-19.978-43.39-43.248-48.515-20.156-4.4371-44.446-2.5274-49.972-28.485 0.564 6.015 2.0319 13.924 1.3481 19.14"/>
 </g>
 <path d="m332.08 380.57c0.15033-4.3024 0.30066-8.6039 0.45102-12.907-10.951 0-14.342-3.1217-14.342 8.3638 9.77e-4 7.7813 8.8794 4.5435 13.892 4.5435" fill="#f00"/>
 <path d="m329.39 374.34c0.14838-4.3024 0.29773-8.6038 0.44708-12.907-10.949 0-14.338-3.1207-14.338 8.3638 0 7.7793 8.8588 4.5435 13.89 4.5435" fill="#faa"/>
 <path d="m344.74 338.69c9.689-0.043915 10.982-14.578 1.3431-16.024-10.867-1.6287-12.599 15.247-1.3431 16.024" fill="#007fff"/>
 <path d="m342.5 332.02c11.514-0.242 10.314-17.758-0.89706-16.023-10.562 1.6336-6.8809 16.24 0.89706 16.023" fill="#aad4ff"/>
 <path d="m232.23 371.69c11.356-0.33276 10.051-17.528-0.89706-16.024-10.512 1.4452-6.9517 16.388 0.89706 16.024" fill="#ff0"/>
 <path d="m231.42 365.02c10.379-0.26935 10.531-16.027 0-16.023-10.525 0.003906-10.373 15.747 0 16.023" fill="#ffa"/>
 <path d="m133.8 135.88c9.69-0.043915 10.983-14.578 1.3442-16.023-10.867-1.6296-12.599 15.246-1.3442 16.023" fill="#f00"/>
 <path d="m135.55 132.2c11.514-0.242 10.313-17.758-0.89708-16.024-10.561 1.6335-6.8799 16.243 0.89708 16.024" fill="#faa"/>
 <path d="m107.46 328.57c-2.988-3.1148-5.976-6.2306-8.9639-9.3455-3.436 3.4115-6.8711 6.824-10.306 10.236 9.749 9.2225 11.242 9.5553 19.27-0.88998" fill="#f00"/>
 <path d="m107.82 321.45c-3.1364-3.1148-6.2727-6.2316-9.41-9.3465-10.037 10.419-10.896 9.2079-0.45099 19.582 3.2877-3.4115 6.5743-6.824 9.861-10.236" fill="#faa"/>
 <path d="m320.98 186.64c10.542-0.17175 10.494-16.072 0-16.024-10.42 0.047821-10.481 15.747 0 16.024" fill="#f00"/>
 <path d="m318.74 179.97c11.231-0.48889 10.142-17.646-0.89706-16.023-10.582 1.5555-6.8672 16.364 0.89706 16.023" fill="#faa"/>
</svg>
